<?xml version="1.0" standalone="no"?><!DOCTYPE svg PUBLIC "-//W3C//DTD SVG 1.1//EN" "http://www.w3.org/Graphics/SVG/1.1/DTD/svg11.dtd"><svg t="1694918587666" class="icon" viewBox="0 0 1025 1024" version="1.1" xmlns="http://www.w3.org/2000/svg" p-id="4074" xmlns:xlink="http://www.w3.org/1999/xlink" width="200.1953125" height="200"><path d="M815.536 582.122c-17.84 0-36.031-17.382-36.031-35.115 0-17.49 18.11-35.088 36.031-35.088 27.273 0 45.383 17.598 45.383 35.088C860.919 564.74 842.809 582.122 815.536 582.122zM616.166 582.122c-17.975 0-36.22-17.382-36.22-35.115 0-17.49 18.245-35.088 36.22-35.088 27.515 0 45.382 17.598 45.382 35.088C661.549 564.74 643.681 582.122 616.166 582.122zM1024.069 626.103c0-140.432-145.041-254.858-307.922-254.858-172.502 0-308.245 114.48-308.245 254.858 0 140.783 135.824 254.832 308.245 254.832 36.085 0 72.52-8.732 108.74-17.544l99.389 52.847-27.246-87.827C969.793 775.455 1024.069 705.307 1024.069 626.103zM244.699 344.888c-27.219 0-54.599-17.625-54.599-43.927 0-26.41 27.38-43.846 54.599-43.846 27.192 0 45.248 17.355 45.248 43.846C289.946 327.263 271.89 344.888 244.699 344.888zM498.344 257.115c27.38 0 45.382 17.436 45.382 43.846 0 26.303-18.002 43.927-45.382 43.927-27.084 0-54.357-17.625-54.357-43.927C443.988 274.47 471.207 257.115 498.344 257.115zM693.16 352.326c11.777 0 23.365 0.862 35.007 2.102-31.342-141.537-187.458-246.666-365.7-246.666C163.204 107.762 0 239.301 0 406.467c0 96.451 54.276 175.655 145.041 237.18l-36.247 105.614 126.742-61.525c45.302 8.624 81.656 17.571 126.931 17.571 11.372 0 22.637-0.512 33.794-1.32-7.061-23.5-11.211-48.05-11.211-73.679C385.104 476.858 521.062 352.326 693.16 352.326z" fill="#272636" p-id="4075"></path></svg>